<?xml version="1.0" encoding="UTF-8" standalone="no"?>
<svg width="303px" height="46px" viewBox="0 0 303 46" version="1.1" xmlns="http://www.w3.org/2000/svg" xmlns:xlink="http://www.w3.org/1999/xlink" xmlns:sketch="http://www.bohemiancoding.com/sketch/ns">
    <!-- Generator: Sketch 3.3.2 (12043) - http://www.bohemiancoding.com/sketch -->
    <title>explore_title</title>
    <desc>Created with Sketch.</desc>
    <defs>
        <path id="path-1" d="M0.0552,0 L46,0 L46,46 L0.0552,46 L0.0552,0 Z"></path>
    </defs>
    <g id="-Screens" stroke="none" stroke-width="1" fill="none" fill-rule="evenodd" sketch:type="MSPage">
        <g id="explore_title" sketch:type="MSLayerGroup">
            <g id="Imported-Layers-Copy-2" transform="translate(169.000000, 0.000000)">
                <g id="Group-3">
                    <mask id="mask-2" sketch:name="Clip 2" fill="white">
                        <use xlink:href="#path-1"></use>
                    </mask>
                    <g id="Clip-2"></g>
                    <path d="M23,0 C10.29756,0 0,10.29848 0,23 C0,35.70244 10.29756,46 23,46 C35.70244,46 46,35.70244 46,23 C46,10.29848 35.70244,0 23,0 L23,0 Z M23,44.52892 C11.11176,44.52892 1.472,34.88916 1.472,23 C1.472,11.11084 11.11176,1.472 23,1.472 C34.88824,1.472 44.528,11.11084 44.528,23 C44.528,34.88916 34.88824,44.52892 23,44.52892 L23,44.52892 Z" id="Fill-1" fill="#FFB938" sketch:type="MSShapeGroup" mask="url(#mask-2)"></path>
                </g>
                <path d="M19.32,19.32 L10.12,35.88 L26.68,26.68 L35.88,10.12 L19.32,19.32 L19.32,19.32 Z M21.08824,20.00448 L32.13008,13.86992 L25.99552,24.91176 L21.08824,20.00448 L21.08824,20.00448 Z M20.0422,21.02016 L24.97984,25.9578 L13.86992,32.13008 L20.0422,21.02016 L20.0422,21.02016 Z" id="Fill-4" fill="#FFB938" sketch:type="MSShapeGroup"></path>
            </g>
            <path d="M0.76,46 L32.87,46 L32.87,44.7 L2.19,44.7 L2.19,23.77 L29.75,23.77 L29.75,22.47 L2.19,22.47 L2.19,1.8 L32.545,1.8 L32.545,0.5 L0.76,0.5 L0.76,46 Z M39.9116667,46 L41.6666667,46 L59.3466667,23.77 L77.0916667,46 L78.7816667,46 L60.1916667,22.86 L78.1316667,0.5 L76.3766667,0.5 L59.3466667,21.885 L42.2516667,0.5 L40.5616667,0.5 L58.5016667,22.86 L39.9116667,46 Z M88.4233334,46 L89.8533334,46 L89.8533334,28.125 L104.153333,28.125 C115.138333,28.125 121.898333,23.12 121.898333,14.28 L121.898333,14.15 C121.898333,5.635 115.528333,0.5 104.413333,0.5 L88.4233334,0.5 L88.4233334,46 Z M89.8533334,26.825 L89.8533334,1.8 L104.283333,1.8 C114.488333,1.8 120.468333,6.48 120.468333,14.215 L120.468333,14.345 C120.468333,22.405 114.228333,26.825 104.153333,26.825 L89.8533334,26.825 Z M132.45,46 L161.83,46 L161.83,44.7 L133.88,44.7 L133.88,0.5 L132.45,0.5 L132.45,46 Z M223.018472,46 L224.448472,46 L224.448472,26.175 L241.153472,26.175 L241.348472,26.175 L256.428472,46 L258.183472,46 L243.038472,26.11 C251.813472,25.59 257.923472,21.04 257.923472,13.37 L257.923472,13.24 C257.923472,9.73 256.753472,6.87 254.673472,4.79 C251.878472,1.995 247.523472,0.5 241.608472,0.5 L223.018472,0.5 L223.018472,46 Z M224.448472,24.875 L224.448472,1.8 L241.478472,1.8 C250.903472,1.8 256.493472,6.09 256.493472,13.305 L256.493472,13.435 C256.493472,19.87 251.423472,24.875 240.893472,24.875 L224.448472,24.875 Z M270.665278,46 L302.775278,46 L302.775278,44.7 L272.095278,44.7 L272.095278,23.77 L299.655278,23.77 L299.655278,22.47 L272.095278,22.47 L272.095278,1.8 L302.450278,1.8 L302.450278,0.5 L270.665278,0.5 L270.665278,46 Z" id="EXPLORE-Copy" fill="#363636" sketch:type="MSShapeGroup"></path>
        </g>
    </g>
</svg>