<?xml version="1.0" encoding="UTF-8" standalone="no"?>
<svg width="247px" height="451px" viewBox="0 0 247 451" version="1.1" xmlns="http://www.w3.org/2000/svg" xmlns:xlink="http://www.w3.org/1999/xlink" xmlns:sketch="http://www.bohemiancoding.com/sketch/ns">
    <!-- Generator: Sketch 3.3.2 (12043) - http://www.bohemiancoding.com/sketch -->
    <title>Rectangle 103 Copy</title>
    <desc>Created with Sketch.</desc>
    <defs></defs>
    <g id="Icons-and-Assets" stroke="none" stroke-width="1" fill="none" fill-rule="evenodd" sketch:type="MSPage">
        <path d="M54.1407673,357.272216 C56.6017113,354.319083 54.1407673,352.350328 52.664201,346.936252 C52.664201,344.475308 52.2580193,336.50358 53.1563898,334.631532 L65.9532984,334.631532 C77.1748064,312.617412 83.0501344,288.51004 86.5744874,273.895916 C85.6408502,266.709478 84.1453149,263.756345 83.1799062,258.342269 C85.1486614,254.404758 85.1486614,255.881325 86.5744869,252.436003 L92.5314933,252.436003 C98.4302216,232.002538 102.047762,185.087784 104.344024,155.966999 C107.05036,121.64574 109.623509,91.0687971 109.265912,69.8339605 C107.297157,60.4823734 105.820591,54.5761078 104.836213,48.1776535 C105.670057,46.5099659 106.188944,42.2136799 107.789346,39.3182552 C109.967589,35.3774088 113.203423,32.9198009 113.203423,32.9198009 C113.203423,32.9198009 114.044726,32.9198009 115.172178,32.9198009 C115.633845,32.9198009 115.172178,6.34160606 115.172178,0.435340498 C115.730382,0.435340498 118.125311,0.435340523 120.094066,0.435340498 C120.094066,9.29473879 120.586255,25.536969 120.586255,32.9198009 C122.062821,32.9198009 122.55501,32.9198009 122.55501,32.9198009 C122.55501,32.9198009 126.229313,35.5398434 128.461275,39.3182552 C130.162728,42.1985858 130.349893,46.0486232 131.414408,48.1776535 C128.953464,61.9589398 129.445653,56.0526742 126.49252,70.3261493 C125.828291,91.757809 130.80854,124.007442 131.414408,155.966999 C132.089692,191.588233 137.339526,225.066957 143.946317,253.682118 C148.148827,253.682111 146.180072,253.682111 149.133205,253.682111 C150.117582,254.896947 150.117582,255.389136 151.594149,258.834457 C151.07992,259.734357 151.10196,265.7251 149.133205,275.076688 C151.226202,283.520823 156.892251,308.369364 169.805134,334.631532 L182.109854,334.631532 L182.109854,347.42844 C181.125476,350.873762 181.125476,350.381573 181.125476,357.272216 C205.734916,401.569208 231.820922,431.100535 247.078775,450.295898 L195.89114,450.295898 C175.219211,388.28011 152.57854,376.467579 117.633122,376.467579 C90.5627381,376.467579 52.664201,386.803544 41.3438587,450.295898 L0,450.295898 C0,450.295898 29.8302952,407.58467 54.1407673,357.272216 Z M100.406514,309.037714 C102.083237,299.330371 105.820591,280.490764 105.820591,280.490764 L129.937842,280.490764 L143.719128,334.631532 L95.9768148,334.631532 C95.9768148,334.631532 98.9660413,317.377293 100.406514,309.037714 Z M112.711234,221.428109 C114.679989,203.217124 117.140933,177.131118 117.140933,177.131118 L118.617499,176.638929 L126.984709,252.436003 L109.265912,252.436003 C109.265912,252.436003 110.742479,239.639094 112.711234,221.428109 Z" id="Rectangle-103-Copy" fill="#FFBA00" sketch:type="MSShapeGroup"></path>
    </g>
</svg>