<?xml version="1.0" encoding="UTF-8" standalone="no"?>
<svg width="477px" height="310px" viewBox="0 0 477 310" version="1.1" xmlns="http://www.w3.org/2000/svg" xmlns:xlink="http://www.w3.org/1999/xlink" xmlns:sketch="http://www.bohemiancoding.com/sketch/ns">
    <!-- Generator: Sketch 3.3.2 (12043) - http://www.bohemiancoding.com/sketch -->
    <title>Path 1</title>
    <desc>Created with Sketch.</desc>
    <defs></defs>
    <g id="Icons-and-Assets" stroke="none" stroke-width="1" fill="none" fill-rule="evenodd" sketch:type="MSPage">
        <path d="M65.0779586,126.246661 C65.0321714,121.018457 69.0487806,115.57745 74.0661497,114.088834 L74.9289037,113.832862 C79.9387318,112.346484 83.9999998,115.38061 83.9999997,120.603018 L83.9999993,148.732358 L65.2984524,151.423707 L65.0779586,126.246661 Z M9,63.5598712 C9,63.5598712 45,9.55987123 123,0.559871231 C133,21.5598713 150,61.5598712 150,61.5598712 L168,70.5598712 L176,139.559871 L200,140.559871 L215,149.559871 L269,148.559871 L269,125.559871 C269,125.559871 423,120.559871 476,163.559871 C477,201.559871 475,243.559871 476,279.559871 C411,302.559871 123,331.559871 0,282.559871 C4,220.559871 9,63.5598712 9,63.5598712 Z M158.709415,186.926767 C158.869901,179.544434 164.964925,174.018712 172.342738,174.586236 L174.030182,174.716039 C180.088645,175.182075 184.888198,180.479155 184.750237,186.549428 L184,219.55987 L158,219.55987 L158.709415,186.926767 Z M124.656381,114.230176 C124.804869,107.399729 130.444244,102.287095 137.252895,102.810838 L138.009346,102.869026 C144.069124,103.335163 148.869479,108.643967 148.731771,114.703111 L148.056303,144.423707 L124,144.423707 L124.656381,114.230176 Z M93.30332,118.417099 C93.30332,112.973102 97.6991234,108.113522 103.093955,107.565731 L103.209364,107.554012 C108.616583,107.004963 112.999999,110.97676 112.999999,116.401218 L113,145.55987 L93.30332,147.423707 L93.30332,118.417099 Z M44.6499067,130.21761 C44.6218066,126.261118 47.6179429,121.949283 51.3357053,120.589146 L52.2633218,120.249779 C55.9838865,118.888617 59.0000001,120.995293 59,124.95654 L58.9999996,152.908986 L44.8289272,155.423707 L44.6499067,130.21761 Z M29.8987668,134.99109 C29.8846261,132.338734 31.8021954,129.248421 34.1887818,128.08527 L35.2045642,127.590208 C37.5880148,126.428586 39.5201832,127.641337 39.5201832,130.281574 L39.5201829,156.831367 L30.0271698,159.075503 L29.8987668,134.99109 Z M16.7867601,142.528273 C16.7747764,140.149514 18.4716559,137.340937 20.5789663,136.254047 L21.5891745,135.733011 C23.6955359,134.646611 25.4030791,135.691829 25.4030791,138.068906 L25.4030788,163.46751 L16.9029607,165.594024 L16.7867601,142.528273 Z M157,265.445312 C157,257.776595 163.179382,252.221948 170.815434,253.040096 L174.054169,253.387104 C180.099385,254.034805 184.897216,259.493511 184.770893,265.556989 L184,302.55987 L157,302.55987 L157,265.445312 Z M199,267.547888 C199,259.537298 205.49011,253.278722 213.5,253.569109 L217.015672,253.696565 C223.082149,253.916497 228,259.025476 228,265.091632 L228,304.55987 L199,304.559869 L199,267.547888 Z M249,267.050155 C249,259.047392 255.49011,252.783668 263.5,253.059871 L267.015672,253.181101 C273.082149,253.39029 278,258.492175 278,264.559874 L278,298.05987 L249,298.05987 L249,267.050155 Z M292.246861,264.438015 C292.246861,257.603863 297.786537,252.287509 304.605301,252.56301 L306.01679,252.620039 C312.082649,252.86512 317,257.996641 317,264.065003 L317,297.568665 L292.246861,297.568664 L292.246861,264.438015 Z M345.554648,257.679216 C345.554648,252.590638 349.671187,248.672043 354.763814,248.927524 L354.790834,248.928879 C359.876916,249.184032 364,253.527693 364,258.606336 L364,290.568665 L345.554648,290.568664 L345.554648,257.679216 Z M372.698592,256.453892 C372.698592,251.86996 376.403409,248.342372 380.986689,248.575471 L381.011006,248.576708 C385.588396,248.809508 389.299104,252.720699 389.299104,257.289731 L389.299104,286.568665 L372.698592,286.568664 L372.698592,256.453892 Z M398.399488,256.210352 C398.399488,253.169723 400.854411,250.880716 403.883375,251.09776 L403.915601,251.100069 C406.944268,251.317091 409.399488,253.959474 409.399488,256.992872 L409.399488,286.568665 L398.399488,286.568664 L398.399488,256.210352 Z M416.9033,255.731213 C416.956706,252.69373 419.460694,250.231364 422.495687,250.231364 L421.887601,250.231364 C424.922786,250.231364 427.383289,252.697815 427.383289,255.731213 L427.383289,285.307006 L416.383289,285.307005 L416.9033,255.731213 Z M433.159929,254.443565 C433.20191,251.793008 435.384606,249.644307 438.034743,249.644307 L437.503766,249.644307 C440.154071,249.644307 442.302567,251.796953 442.302567,254.443565 L442.302567,283.644307 L432.697433,283.644306 L433.159929,254.443565 Z M447.736275,255.390251 C447.774429,253.016383 449.72929,251.091982 452.102244,251.091982 L451.626803,251.091982 C453.999906,251.091982 455.923687,253.014254 455.923687,255.390251 L455.923687,281.091982 L447.323175,281.091982 L447.736275,255.390251 Z M458.54287,253.10789 C458.559937,251.519228 459.859713,250.231364 461.445777,250.231364 L461.127995,250.231364 C462.71416,250.231364 464,251.520426 464,253.10789 L464,280.231364 L458.251484,280.231363 L458.54287,253.10789 Z M117.661044,265.327603 C117.959229,257.723895 124.329669,252.267031 131.88622,253.13894 L133.268799,253.298469 C139.306462,253.995122 143.996319,259.471139 143.743369,265.541945 L142.200955,302.55987 L116.200955,302.55987 L117.661044,265.327603 Z M87.7762636,262.997983 C87.8998298,257.233173 92.6638705,252.559871 98.4393278,252.559871 L97.5606729,252.559871 C103.326154,252.559871 107.948532,257.223742 107.884809,262.997983 L107.492361,298.55987 L87.0140101,298.55987 L87.7762636,262.997983 Z M59.6661813,258.504226 C59.7574519,253.564395 63.8312349,249.559871 68.7843392,249.559871 L68.0307938,249.559871 C72.9753427,249.559871 76.945818,253.5616 76.8989755,258.510991 L76.5483337,295.55987 L59,294.559871 L59.6661813,258.504226 Z M39.5201831,260.729706 C39.5201831,256.769915 42.7337237,253.559871 46.6964601,253.559871 L46.8237226,253.559871 C50.7870709,253.559871 53.9361476,256.767977 53.8571751,260.735784 L53.2237704,292.55987 L39.5201831,291.559871 L39.5201831,260.729706 Z M22.8513697,256.059193 C22.933456,253.022001 25.4719107,250.559871 28.4973148,250.559871 L27.5026852,250.559871 C30.5387684,250.559871 33,253.023878 33,256.065092 L33,288.559871 L22,287.559871 L22.8513697,256.059193 Z M249.589294,193.553469 C249.816121,185.272734 256.706698,179.038921 264.96319,179.628671 L267.034099,179.776593 C273.090399,180.209185 278.144874,185.485595 278.32329,191.551743 L279,214.559871 L249,215.06673 L249.589294,193.553469 Z M317.696574,196.403818 C317.864151,190.414871 322.857393,185.559871 328.8537,185.559871 L328.1463,185.559871 C334.140633,185.559871 338.864095,190.416897 338.696574,196.403818 L338,221.298214 L317,221.298212 L317.696574,196.403818 Z M346.802575,196.500073 C346.91161,191.562536 351.007236,187.795591 355.935621,188.085496 L355.064379,188.034246 C359.999386,188.324541 364,192.568453 364,197.507259 L364,227.55987 L346.100383,228.298212 L346.802575,196.500073 Z M372.10168,196.500073 C372.210714,191.562536 376.30634,187.795591 381.234725,188.085496 L380.363483,188.034246 C385.29849,188.324541 389.299104,192.568453 389.299104,197.507259 L389.299104,227.55987 L371.399488,228.298212 L372.10168,196.500073 Z M415.59427,198.442477 C415.691985,194.641319 418.85607,191.559871 422.656826,191.559871 L422.114373,191.559871 C425.9172,191.559871 428.893929,194.635924 428.76238,198.450851 L428,220.559871 L415,221.559871 L415.59427,198.442477 Z M433.394866,199.35964 C433.394866,196.708801 435.502754,194.99878 438.098949,195.539365 L438.295917,195.580378 C440.893911,196.121337 443,198.71349 443,201.365033 L443,230.987756 L433.394866,230.987755 L433.394866,199.35964 Z M446.394866,199.35964 C446.394866,196.708801 448.502754,194.99878 451.098949,195.539365 L451.295917,195.580378 C453.893911,196.121337 456,198.71349 456,201.365033 L456,230.987756 L446.394866,230.987755 L446.394866,199.35964 Z M458.251484,199.423999 C458.251484,197.833924 459.484685,196.927027 460.991055,197.393784 L461.260429,197.477251 C462.773452,197.94607 464,199.604578 464,201.196914 L464,228.987756 L458.251484,228.987755 L458.251484,199.423999 Z M396.391309,195.544254 C396.562289,191.496883 399.947966,188.679708 403.96744,189.253919 L403.434352,189.177763 C407.447553,189.751078 410.550103,193.491987 410.363736,197.541031 L409.700896,211.941978 L395.698592,211.941978 L396.391309,195.544254 Z M119.656381,189.366339 C119.804869,182.535892 125.444244,177.423259 132.27051,177.948356 L133.009346,178.00519 C139.069124,178.471326 143.869479,183.78013 143.731771,189.839274 L143.056303,219.55987 L119,219.55987 L119.656381,189.366339 Z M87.4328978,190.901916 C87.7460997,184.637878 93.0835142,179.559871 99.3604695,179.559871 L98.0079727,179.559871 C104.078702,179.559871 108.870583,184.4847 108.711034,190.556192 L107.948864,219.55987 L86,219.55987 L87.4328978,190.901916 Z M62.7768251,191.705298 C62.9000812,187.127046 66.7096837,183.415639 71.3066543,183.415639 L70.4310328,183.415639 C75.0186713,183.415639 78.6756952,187.130086 78.5993378,191.705298 L78.1177727,220.55987 L62,220.55987 L62.7768251,191.705298 Z M40.6908423,193.853724 C40.7950471,189.82544 44.1422694,186.559871 48.1854052,186.559871 L47.415277,186.559871 C51.450205,186.559871 54.6688817,189.819934 54.6041953,193.853724 L54.1759323,220.55987 L40,220.55987 L40.6908423,193.853724 Z M26.4438579,194.85814 C26.4848536,192.484272 28.4503513,190.559871 30.80973,190.559871 L30.3799378,190.559871 C32.7501467,190.559871 34.6510015,192.482143 34.6255649,194.85814 L34.350411,220.55987 L26,220.55987 L26.4438579,194.85814 Z M16.254452,194.851229 C16.2669771,193.585747 17.3107209,192.559871 18.5855394,192.559871 L18.3301188,192.559871 C19.6050177,192.559871 20.6322094,193.589613 20.6244686,194.851229 L20.4667301,220.55987 L16,220.55987 L16.254452,194.851229 Z" id="Path-1" fill="#FFBA00" sketch:type="MSShapeGroup"></path>
    </g>
</svg>