<?xml version="1.0" encoding="UTF-8" standalone="no"?>
<svg width="585px" height="274px" viewBox="0 0 585 274" version="1.1" xmlns="http://www.w3.org/2000/svg" xmlns:xlink="http://www.w3.org/1999/xlink" xmlns:sketch="http://www.bohemiancoding.com/sketch/ns">
    <!-- Generator: Sketch 3.3.2 (12043) - http://www.bohemiancoding.com/sketch -->
    <title>Group</title>
    <desc>Created with Sketch.</desc>
    <defs></defs>
    <g id="Icons-and-Assets" stroke="none" stroke-width="1" fill="none" fill-rule="evenodd" sketch:type="MSPage">
        <g id="Group" sketch:type="MSLayerGroup" fill="#FFBA00">
            <path d="M0,254 C13,240 33.6836791,217.283078 35,215 L44,215 C46,212 55.7070905,197.461022 56,197 C59,197 62,197 64,197 C66,194 74.6788343,175.470623 75,175 L87,175 C88,174 98.2914754,154.062787 99,153 L109,153 C110,152 120.649307,131.701387 121,131 C121.729934,130.854013 129.210558,130.886405 130,131 C130.512509,131.073746 130.212706,131.393647 131,131 C134,127 142.27594,107.728468 143,107 C143.793295,106.927719 150,107 152,107 C156,100 163,88 163,88 L183,83 L170,95 L22,257 C22,257 7.00000017,255 0,254 Z" id="Rectangle-82-Copy" sketch:type="MSShapeGroup"></path>
            <path d="M198,26.9278847 C198,26.9278847 236,6.92788475 250,0.927884749 C277,3.92788475 339,11.9278847 339,11.9278847 L339,58.9278847 C339,58.9278847 271,50.9278847 250,48.9278847 C232,53.9278847 199,62.9278847 199,62.9278847 L198,26.9278847 Z" id="Rectangle-79-Copy" sketch:type="MSShapeGroup"></path>
            <path d="M332,69.9278847 L359,71.9278847 C359,71.9278847 368,84.9278847 372,90.9278847 L386,90.9278847 C387.463518,94.1801469 392,103.927885 396,112.927885 L412,112.927885 C413.830779,115.857131 417,122.927885 423,133.927885 C424.764974,133.486641 430,133.927885 438,133.927885 C440,136.927885 445,144.927885 450,154.927885 L466,154.927885 C466.890173,157.153318 472,164.927885 477,173.927885 L492,173.927885 C494,176.927885 504,190.927885 507,195.927885 C508.399089,195.728015 510,195.927885 516,195.927885 C520.059531,201.340593 527,207.927885 532,214.927885 L548,214.927885 C551.645756,220.193977 557,226.927885 561,233.927885 C563.902399,233.927885 566.081054,233.816956 568,233.927885 C570.074804,234.047824 572,233.927885 575,233.927885 C579,239.927885 585,249.927885 585,249.927885 L471,257.927885 L332,69.9278847 Z" id="Rectangle-80-Copy" sketch:type="MSShapeGroup"></path>
            <path d="M81,251.927881 L91,251.927881 C92,249.927881 103.556088,227.815705 104,226.927881 L111,226.927881 C112,223.927881 118.302255,206.625626 119,205.927881 L128,205.927881 C129,204.927881 140.691975,180.543938 141,179.927889 L149,179.927889 C151,174.927889 156.727202,156.473485 157,155.927889 L164,155.927889 C166,152.927889 173.847142,134.772461 175,132.927889 C182,132.927889 183.784631,133.143258 184,132.927889 C187,124.927889 190,117.927885 192,110.927885 C196,110.927885 199.849498,111.228889 200,110.927885 C202,107.927885 206.038326,96.949981 210,86.9278847 C217,86.9278847 219,86.9278851 224,86.9278851 C227,81.9278851 232.27178,68.6561043 233,67.9278846 C236,66.9278846 248.010822,63.0011312 250,62.9278847 C250.252224,62.9185972 260,64.9278847 260,64.9278847 L355,259.927885 C355,259.927885 207.06115,271.339569 132,273.927885 C106,271.339567 70,266.927885 70,266.927885 C70,266.927885 77,256.927881 81,251.927881 Z" id="Rectangle-81-Copy" sketch:type="MSShapeGroup"></path>
        </g>
    </g>
</svg>