<svg width="414px" height="371px" viewBox="0 0 414 371" version="1.1" xmlns="http://www.w3.org/2000/svg" xmlns:xlink="http://www.w3.org/1999/xlink" xmlns:sketch="http://www.bohemiancoding.com/sketch/ns">
	<!-- Generator: Sketch 3.3.2 (12043) - http://www.bohemiancoding.com/sketch -->
	<g stroke="none" stroke-width="1" fill="none" fill-rule="evenodd" sketch:type="MSPage">
		<g sketch:type="MSLayerGroup" transform="translate(0.711325, 0.295898)" fill="#FFBA00">
			<path d="M181.653171,107.738581 C177.945985,111.759508 176.239727,113.113083 172.291919,117.454774 C123.26987,111.034864 25.8646465,98.6859296 25.8646465,98.6859296 L0.208585859,182.520101 C0.208585859,182.520101 8.96919192,188.567839 15.2267677,191.278894 C19.189899,186.482412 27.3247475,175.846734 27.3247475,175.846734 L397.564646,208.796482 C397.564646,208.796482 396.521717,193.98995 396.104545,186.482412 C402.362121,184.396985 405.936729,182.730802 407.785354,182.103015 C407.785354,180.434673 407.663096,179.98816 407.785354,178.766332 C411.122727,175.012563 411.331313,175.429648 413,172.718593 C407.993939,172.301508 397.356061,170.841709 394.018687,170.633166 C393.810101,169.38191 393.810101,168.339196 393.810101,167.08794 C390.055556,166.879397 384.215152,166.045226 381.920707,165.836683 C381.462277,162.536671 381.294949,157.286432 381.086364,153.532663 C382.920975,151.596529 385.675253,149.778894 387.343939,148.527638 C387.343939,147.276382 387.343939,146.025126 387.343939,146.025126 C387.343939,146.025126 340.932428,139.240477 287.639899,132.261307 C289.1,130.801508 289.725758,130.175879 291.60303,128.298995 C291.60303,126.839196 291.74639,126.414578 291.60303,125.170854 C289.308586,124.962312 286.805556,124.336683 284.093939,124.128141 C283.905434,122.997344 283.887287,122.547837 283.88554,121.086442 C284.639783,120.476846 285.985877,119.324958 286.929798,117.687461 C288.239659,115.415137 288.714878,112.550264 288.8595,112.542654 C289.38843,112.542654 290.789202,112.542654 291.754052,112.864204 C292.718903,113.185755 293.362137,115.758158 292.718903,118.009011 C292.075669,120.259864 291.499596,121.256993 291.754052,122.189167 C292.287651,124.143946 294.307323,123.200444 294.970222,122.832268 C295.942479,122.292273 297.285767,112.714212 297.543158,112.542654 C298.508009,111.899553 301.469102,109.405979 302.367412,108.684048 C303.656134,107.648362 301.681976,109.871918 303.975497,110.613351 C305.482496,111.100523 307.191667,110.291801 309.121369,109.97025 C309.429681,109.918875 312.980772,108.684048 311.694304,111.899553 C310.407836,115.115057 310.672103,117.082585 309.764602,117.687461 C305.583582,118.330562 306.731267,122.556085 308.799752,123.796919 C314.26724,121.224516 315.380828,109.831275 315.553708,109.327149 C316.329659,107.064444 314.26724,104.503893 309.121369,104.182342 C311.05107,101.288388 310.973797,98.369395 311.05107,97.7513335 C311.372687,95.1789299 309.042971,93.7118851 309.121369,92.9280769 C309.442985,89.7125725 306.87005,80.2984045 306.87005,79.4229584 C310.086219,85.5324168 310.086219,86.4970681 314.910474,84.246215 C316.518559,81.6738115 314.52976,71.5745151 314.910474,71.3841975 C316.196942,70.7410966 316.245784,69.0559565 316.196942,68.8117939 C314.588857,68.1686931 315.232091,69.7015284 314.26724,69.7764453 C313.302389,69.8513622 313.516531,68.9687991 313.302389,68.8117939 C312.923227,67.7489043 314.01451,66.490276 313.302389,65.91784 C312.87606,65.5751372 311.799989,67.2387197 310.407836,67.5255922 C304.274544,68.789443 291.324673,74.6912007 293.683754,90.6772238 C287.573032,90.6772238 280.326072,94.3785791 277.924523,95.1789299 C281.783927,85.8539672 277.26071,82.3760882 276.959672,81.6738115 C276.870751,81.4960064 275.673204,71.062647 276.638055,69.7764453 C277.924523,69.4548948 277.493069,69.4342111 278.24614,69.7764453 C279.854225,72.9919497 282.105544,73.3135001 283.070394,72.6703992 C285.321713,72.6703992 285.000096,69.2774491 285.000096,68.8117939 C284.678479,65.91784 282.105544,63.2587685 282.105544,63.023886 C282.427161,61.4161339 280.403238,59.5783145 279.854225,59.4868312 C280.819076,58.5221799 281.544022,57.4280181 281.140693,56.5928773 C280.367821,55.8201658 279.340496,57.3610087 278.567757,57.5575286 C277.281289,55.9497764 276.573236,57.1719982 275.994821,57.5575286 C276.316438,55.9497764 275.551089,55.4228095 275.351587,55.3066755 C272.441798,55.3066755 264.416611,70.4195461 261.522058,83.6031141 C258.6275,84.246215 254.500778,86.9033666 252.838395,87.7832698 C248.377136,90.5170239 240.295333,97.7513335 237.722398,100.002187 C238.413321,98.3443137 239.008865,91.9634256 235.792696,92.284976 C237.400781,89.0694716 237.400781,83.6031141 236.757547,81.3522611 C235.149462,77.4936558 233.862994,75.8859036 234.184611,73.956601 C236.114313,71.3841975 236.43593,71.7057479 238.044015,65.91784 C238.365632,64.6316382 237.079164,62.0592347 238.365632,59.8083817 C238.404425,56.4706682 237.605113,56.3583567 237.400781,55.9497764 C239.008865,55.3066755 239.440989,52.9428552 239.008865,52.4127216 C238.763657,52.1118971 238.044015,51.4480702 236.43593,53.3773729 C236.114313,53.0558224 234.479558,52.8819663 233.862994,53.3773729 C232.954694,52.3437037 233.53152,50.5504953 232.254909,51.4480702 C231.379107,52.0638399 230.00359,53.6989233 230.00359,55.6282259 C227.752272,56.5928773 225.503144,64.8115063 223.571251,72.9919497 C223.092574,67.887116 222.928017,58.5221799 218.103763,63.6669869 C216.495678,63.9885374 220.033465,57.5575286 220.033465,57.5575286 C220.033465,57.5575286 220.355083,50.7477583 219.068615,50.4262078 C219.068615,49.4615565 219.649928,38.1905791 219.711848,37.9429518 C229.03874,37.9429518 227.570089,27.3658725 227.109038,26.367136 C225.179336,22.1869803 223.33248,22.8398425 223.249635,22.5085307 C222.928018,21.222329 223.571251,19.1483631 223.571251,18.9714759 C226.787421,18.9714759 227.369688,15.67824 227.430655,15.4344211 C231.290059,13.5051184 234.506228,3.21550439 234.506228,3.21550439 C234.506228,3.21550439 225.82257,5.7879079 224.536102,9.00341229 C224.536102,11.2542654 224.214485,12.2189167 222.284784,12.2189167 C222.284784,10.6111645 222.606401,7.3956601 222.606401,5.7879079 C220.676699,4.82325659 220.676699,4.82325659 219.068614,5.7879079 C219.068614,7.3956601 219.230175,12.5404671 219.068614,12.5404671 C219.068614,12.5404671 218.103763,12.5404671 216.817295,12.2189167 C215.20921,10.9327149 216.890262,9.14931658 216.817295,9.00341229 C213.279509,4.82325659 205.882318,0 205.882318,0 C205.882318,0 206.525552,13.8266689 212.314658,14.4697698 C212.161825,14.6225706 211.838099,15.2406674 211.671424,16.3990724 C211.671424,16.5604157 211.993041,18.6499255 216.174061,18.9714759 C216.174061,19.1631163 217.138912,20.9007785 215.852444,21.8654299 C214.887593,22.1869803 211.993041,21.5438794 210.706573,27.6533378 C210.440263,28.9180464 210.384956,36.0136492 216.495678,37.6214014 C216.495678,39.2291536 216.037453,47.8538043 216.037453,50.4262078 C215.072602,51.0693087 211.671424,53.3773729 208.455254,56.9144277 C207.721315,57.7215938 204.595851,61.0945834 206.525552,66.8824913 C206.293659,67.0215988 203.309383,67.2040418 202.987766,66.5609409 C202.666149,65.91784 203.631,60.4514825 201.379681,59.4868312 C201.203454,59.411321 196.877043,58.8437303 195.912192,62.3807852 C195.590575,56.5928773 193.338367,52.7324929 192.696023,51.4480702 C192.564853,51.185785 192.374406,48.2325659 191.087938,47.9110154 C190.766321,47.9110154 190.123087,47.9110154 190.123087,49.5187676 C190.007164,49.7095998 188.515002,48.5541163 187.550151,49.840318 C186.655896,51.0324115 186.263683,48.5541163 185.62045,49.1972172 C184.977216,49.840318 185.652306,52.0907242 185.62045,54.0204738 C184.333982,55.3066755 186.263684,65.91784 186.263684,65.91784 C186.263684,65.91784 187.419331,70.136382 186.263683,73.6350505 C185.840006,74.9177132 181.433511,76.7826737 179.831344,81.6738115 C177.758489,88.0018815 179.831344,107.076296 181.439429,107.719397 C181.509356,107.725566 181.58061,107.731962 181.653171,107.738581 Z M260.598146,117.527757 C263.303598,117.890708 265.853375,118.232126 268.203127,118.54584 C265.527073,115.024763 268.346139,108.408214 265.059844,109.005599 C263.901348,109.216191 263.447308,110.931791 262.808526,112.221103 C261.797455,114.261839 261.075664,116.551629 260.598146,117.527757 Z" id="Rectangle-87" sketch:type="MSShapeGroup"></path>
			<path d="M26.490404,188.984924 C23.9873737,186.690955 24.4045455,184.81407 24.4045455,184.81407 C24.4045455,184.81407 29.6191919,180.226131 39.4227273,180.643216 C49.2262626,181.060301 54.0237374,185.231156 54.0237374,185.231156 C54.0237374,185.231156 54.0237374,187.525125 51.1035354,189.40201 C50.8949495,192.530151 48.3919192,368.123115 48.3919192,368.123115 C48.3919192,368.123115 44.0116162,369.999999 34.6252525,369.999999 C25.2388889,369.999999 21.9015152,368.123115 21.9015152,368.123115 C21.9015152,368.123115 26.490404,191.487437 26.490404,188.984924 Z" id="Rectangle-88" sketch:type="MSShapeGroup"></path>
			<path d="M107.886623,194.968566 C105.235805,192.718435 105.273928,190.202978 105.273928,190.202978 C105.273928,190.202978 108.747187,186.828598 118.973641,187.07458 C129.200096,187.320562 133.543178,190.202978 133.543178,190.202978 C133.543178,190.202978 133.943467,192.655024 130.933706,194.582735 C130.77321,197.714296 132.673354,363.516218 132.673354,363.516218 C132.673354,363.516218 130.279849,366.897942 120.495831,367.061736 C110.711812,367.22553 107.231029,364.350457 107.231029,364.350457 C107.231029,364.350457 107.932164,197.470903 107.886623,194.968566 L107.886623,194.968566 Z" id="Rectangle-88-Copy" sketch:type="MSShapeGroup"></path>
			<path d="M181.587401,201.051189 C179.298375,198.800504 179.146304,196.670352 179.146304,196.670352 C179.146304,196.670352 181.957744,192.669306 190.788457,192.915349 C199.619171,193.161392 202.43061,196.670352 202.43061,196.670352 C202.43061,196.670352 202.026283,198.777055 199.427304,200.705241 C199.288713,203.837575 205.00701,360.649227 205.00701,360.649227 C205.00701,360.649227 203.557271,363.76798 195.107321,364.185207 C186.65737,364.602433 184.101339,361.054625 184.101339,361.054625 C184.101339,361.054625 181.626726,203.554143 181.587401,201.051189 L181.587401,201.051189 Z" id="Rectangle-88-Copy-2" sketch:type="MSShapeGroup"></path>
			<path d="M269.453161,206.977464 C267.493677,204.814551 267.896744,203.523641 267.896744,203.523641 C267.896744,203.523641 269.312768,200.185305 276.651954,200.088711 C283.991141,199.992117 285.658685,202.277642 285.658685,202.277642 C285.658685,202.277642 286.047306,203.931264 283.939518,205.961247 C283.906194,209.100455 291.728423,357.304053 291.728423,357.304053 C291.728423,357.304053 290.342567,360.624055 283.331322,361.115893 C276.320078,361.607732 274.172815,358.535577 274.172815,358.535577 C274.172815,358.535577 269.551146,209.480087 269.453161,206.977464 L269.453161,206.977464 Z" id="Rectangle-88-Copy-3" sketch:type="MSShapeGroup"></path>
			<path d="M329.016388,211.386221 C327.198656,209.266185 327.596636,208.19175 327.596636,208.19175 C327.596636,208.19175 328.306568,205.113683 335.017064,204.845246 C341.72756,204.57681 342.580193,206.936811 342.580193,206.936811 C342.580193,206.936811 342.650398,208.408336 341.572511,210.099321 C341.579472,213.243615 349.572519,355.019574 349.572519,355.019574 C349.572519,355.019574 349.589393,358.364342 343.150995,358.784383 C336.712596,359.204423 335.445166,355.647041 335.445166,355.647041 C335.445166,355.647041 329.13584,213.889985 329.016388,211.386221 L329.016388,211.386221 Z" id="Rectangle-88-Copy-4" sketch:type="MSShapeGroup"></path>
			<path d="M382.379451,215.268594 C381.233115,214.430825 381.150361,212.723887 381.150361,212.723887 C381.150361,212.723887 381.871604,209.646608 388.68902,209.37824 C395.506436,209.109872 395.725193,211.253889 395.725193,211.253889 C395.725193,211.253889 395.282156,214.013977 394.412311,214.432183 C394.419384,217.575672 403.827402,354.577349 403.827402,354.577349 C403.827402,354.577349 403.819744,356.802181 397.311796,357.458564 C390.803848,358.114946 389.899926,355.982055 389.899926,355.982055 C389.899926,355.982055 382.500806,217.771717 382.379451,215.268594 L382.379451,215.268594 Z" id="Rectangle-88-Copy-5" sketch:type="MSShapeGroup"></path>
		</g>
	</g>
</svg>