<?xml version="1.0" encoding="UTF-8" standalone="no"?>
<svg width="20px" height="20px" viewBox="0 0 20 20" version="1.1" xmlns="http://www.w3.org/2000/svg" xmlns:xlink="http://www.w3.org/1999/xlink" xmlns:sketch="http://www.bohemiancoding.com/sketch/ns">
    <!-- Generator: Sketch 3.3.2 (12043) - http://www.bohemiancoding.com/sketch -->
    <title>Imported Layers</title>
    <desc>Created with Sketch.</desc>
    <defs></defs>
    <g id="Page-1" stroke="none" stroke-width="1" fill="none" fill-rule="evenodd" sketch:type="MSPage">
        <g id="IntroScreen" sketch:type="MSArtboardGroup" transform="translate(-10.000000, -493.000000)" fill="#FFFFFF">
            <g id="Slider-Tab" sketch:type="MSLayerGroup" transform="translate(0.000000, 484.000000)">
                <g id="Imported-Layers" transform="translate(10.000000, 9.000000)" sketch:type="MSShapeGroup">
                    <path d="M10.447451,0.985882353 C10.76,0.985882353 10.9964706,1.22235294 10.9964706,1.53529412 L10.9964706,2.31960784 C10.9964706,3.32745098 12.2643137,4.19058824 13.3011765,4.19058824 C13.8235294,4.19058824 14.3254902,3.96745098 14.6568627,3.6 L15.1533333,3.10313725 C15.2529412,3.0027451 15.4023529,2.94509804 15.5615686,2.94509804 C15.72,2.94509804 15.8686275,3.0027451 15.9682353,3.1027451 L17.1164706,4.25019608 C17.3407843,4.47411765 17.34,4.83960784 17.1164706,5.06431373 L16.6545098,5.52666667 C16.2501961,5.89254902 16.0270588,6.38627451 16.0270588,6.9172549 C16.0270588,7.95372549 16.8843137,8.82901961 17.8984314,8.82901961 L18.6827451,8.82901961 C18.9952941,8.82901961 19.2317647,9.0654902 19.2317647,9.37843137 L19.2317647,10.9470588 C19.2317647,11.26 18.9952941,11.4960784 18.6827451,11.4960784 L17.8984314,11.4960784 C16.8843137,11.4960784 16.0270588,12.3713725 16.0270588,13.4078431 C16.0270588,13.9380392 16.2447059,14.4270588 16.6176471,14.7643137 L17.1156863,15.2603922 C17.34,15.4854902 17.3407843,15.8513725 17.1156863,16.0752941 L15.9682353,17.2231373 C15.8686275,17.3235294 15.72,17.3803922 15.5615686,17.3803922 C15.4031373,17.3803922 15.2537255,17.3227451 15.1533333,17.2227451 L14.6905882,16.7607843 C14.3239216,16.3568627 13.8305882,16.1345098 13.3011765,16.1345098 C12.2643137,16.1345098 11.3886275,16.9913725 11.3886275,18.0058824 L11.3886275,18.7901961 C11.3886275,19.1031373 11.1521569,19.3392157 10.8396078,19.3392157 L9.27098039,19.3392157 C8.95843137,19.3392157 8.72196078,19.1031373 8.72196078,18.7901961 L8.72196078,18.0058824 C8.72196078,16.9913725 7.84627451,16.1345098 6.80941176,16.1345098 C6.28705882,16.1345098 5.78509804,16.3580392 5.45372549,16.725098 L4.95647059,17.2231373 C4.85686275,17.3235294 4.70823529,17.3803922 4.54980392,17.3803922 C4.39058824,17.3803922 4.2427451,17.3235294 4.14235294,17.2227451 L2.99411765,16.0752941 C2.76980392,15.8513725 2.77058824,15.4854902 2.99411765,15.2611765 L3.45607843,14.7984314 C3.86039216,14.432549 4.08313725,13.9388235 4.08313725,13.4078431 C4.08313725,12.3713725 3.22627451,11.4960784 2.21215686,11.4960784 L1.42784314,11.4960784 C1.11529412,11.4960784 0.878823529,11.26 0.878823529,10.9470588 L0.878823529,9.37843137 C0.878823529,9.0654902 1.11529412,8.82901961 1.42784314,8.82901961 L2.21215686,8.82901961 C3.22627451,8.82901961 4.08313725,7.95372549 4.08313725,6.9172549 C4.08313725,6.38745098 3.86588235,5.89843137 3.49294118,5.56078431 L2.99490196,5.06509804 C2.77058824,4.83960784 2.76980392,4.47411765 2.99411765,4.25019608 L4.14313725,3.10235294 C4.24196078,3.00235294 4.39058824,2.94509804 4.54980392,2.94509804 C4.70901961,2.94509804 4.85764706,3.0027451 4.9572549,3.1027451 L5.42,3.56431373 C5.78666667,3.96862745 6.28,4.19058824 6.80941176,4.19058824 C7.84627451,4.19058824 8.72196078,3.33411765 8.72196078,2.31960784 L8.72196078,1.53529412 C8.72196078,1.22235294 8.95843137,0.985882353 9.27098039,0.985882353 L10.447451,0.985882353 M10.447451,0.358823529 L9.27098039,0.358823529 C8.61137255,0.358823529 8.0945098,0.875686275 8.0945098,1.53529412 L8.0945098,2.31960784 C8.0945098,2.99333333 7.50627451,3.56313725 6.80941176,3.56313725 C6.46392157,3.56313725 6.13215686,3.41568627 5.88470588,3.1427451 L5.40078431,2.65882353 C5.17333333,2.43137255 4.86156863,2.31803922 4.54980392,2.31803922 C4.2372549,2.31803922 3.9254902,2.43176471 3.69882353,2.65882353 L2.55058824,3.80627451 C2.08196078,4.27490196 2.08196078,5.03764706 2.55058824,5.50823529 L3.04941176,6.00509804 C3.31137255,6.2427451 3.45607843,6.56666667 3.45607843,6.9172549 C3.45607843,7.61372549 2.88627451,8.20196078 2.21215686,8.20196078 L1.42784314,8.20196078 C0.768235294,8.20196078 0.251372549,8.71882353 0.251372549,9.37843137 L0.251372549,10.9470588 C0.251372549,11.6062745 0.768235294,12.1235294 1.42784314,12.1235294 L2.21215686,12.1235294 C2.88627451,12.1235294 3.45607843,12.7117647 3.45607843,13.4078431 C3.45607843,13.7541176 3.30823529,14.0866667 3.03568627,14.3329412 L2.55058824,14.8172549 C2.08196078,15.287451 2.08196078,16.0501961 2.55058824,16.5192157 L3.69882353,17.6666667 C3.9254902,17.8941176 4.2372549,18.0082353 4.54980392,18.0082353 C4.86156863,18.0082353 5.17333333,17.8941176 5.40078431,17.6666667 L5.89764706,17.1686275 C6.13137255,16.9105882 6.46392157,16.7619608 6.80941176,16.7619608 C7.50627451,16.7619608 8.0945098,17.3317647 8.0945098,18.0058824 L8.0945098,18.7901961 C8.0945098,19.4494118 8.61137255,19.9666667 9.27098039,19.9666667 L10.8396078,19.9666667 C11.4992157,19.9666667 12.0160784,19.4494118 12.0160784,18.7901961 L12.0160784,18.0058824 C12.0160784,17.3317647 12.6043137,16.7619608 13.3011765,16.7619608 C13.6466667,16.7619608 13.9784314,16.9098039 14.2258824,17.1823529 L14.7098039,17.6666667 C14.9372549,17.8941176 15.2498039,18.0082353 15.5615686,18.0082353 C15.8733333,18.0082353 16.185098,17.8941176 16.412549,17.6666667 L17.56,16.5192157 C18.0286275,16.0501961 18.0286275,15.287451 17.56,14.8172549 L17.0611765,14.32 C16.7992157,14.0827451 16.6545098,13.7588235 16.6545098,13.4078431 C16.6545098,12.7117647 17.2243137,12.1235294 17.8984314,12.1235294 L18.6827451,12.1235294 C19.3423529,12.1235294 19.8592157,11.6062745 19.8592157,10.9470588 L19.8592157,9.37843137 C19.8592157,8.71882353 19.3423529,8.20196078 18.6827451,8.20196078 L17.8984314,8.20196078 C17.2243137,8.20196078 16.6545098,7.61372549 16.6545098,6.9172549 C16.6545098,6.57098039 16.8023529,6.23882353 17.074902,5.99215686 L17.56,5.50823529 C18.0286275,5.03764706 18.0286275,4.27490196 17.56,3.80627451 L16.412549,2.65882353 C16.185098,2.43137255 15.8733333,2.31803922 15.5615686,2.31803922 C15.2498039,2.31803922 14.9372549,2.43176471 14.7098039,2.65882353 L14.2129412,3.15647059 C13.9792157,3.41490196 13.6466667,3.56313725 13.3011765,3.56313725 C12.5843137,3.56313725 11.6239216,2.94823529 11.6239216,2.31960784 L11.6239216,1.53529412 C11.6239216,0.875686275 11.1070588,0.358823529 10.447451,0.358823529" id="Fill-1"></path>
                    <path d="M10.0552941,6.47607843 C12.0882353,6.47607843 13.7415686,8.12980392 13.7415686,10.1627451 C13.7415686,12.1952941 12.0882353,13.8490196 10.0552941,13.8490196 C8.02235294,13.8490196 6.36901961,12.1952941 6.36901961,10.1627451 C6.36901961,8.12980392 8.02235294,6.47607843 10.0552941,6.47607843 M10.0552941,5.84901961 C7.67254902,5.84901961 5.74156863,7.78039216 5.74156863,10.1627451 C5.74156863,12.545098 7.67254902,14.4764706 10.0552941,14.4764706 C12.4380392,14.4764706 14.3690196,12.545098 14.3690196,10.1627451 C14.3690196,7.78039216 12.4380392,5.84901961 10.0552941,5.84901961" id="Fill-2"></path>
                </g>
            </g>
        </g>
    </g>
</svg>