<?xml version="1.0" encoding="UTF-8" standalone="no"?>
<svg width="20px" height="19px" viewBox="0 0 20 19" version="1.1" xmlns="http://www.w3.org/2000/svg" xmlns:xlink="http://www.w3.org/1999/xlink" xmlns:sketch="http://www.bohemiancoding.com/sketch/ns">
    <!-- Generator: Sketch 3.3.2 (12043) - http://www.bohemiancoding.com/sketch -->
    <title>Imported Layers</title>
    <desc>Created with Sketch.</desc>
    <defs>
        <path id="path-1" d="M0,0.0146153846 L19.2857143,0.0146153846 L19.2857143,19 L0,19 L0,0.0146153846 Z"></path>
    </defs>
    <g id="Page-1" stroke="none" stroke-width="1" fill="none" fill-rule="evenodd" sketch:type="MSPage">
        <g id="IntroScreen" sketch:type="MSArtboardGroup" transform="translate(-290.000000, -494.000000)">
            <g id="Slider-Tab" sketch:type="MSLayerGroup" transform="translate(0.000000, 484.000000)">
                <g id="Imported-Layers" transform="translate(290.000000, 10.000000)">
                    <g id="Group-3">
                        <mask id="mask-2" sketch:name="Clip 2" fill="white">
                            <use xlink:href="#path-1"></use>
                        </mask>
                        <g id="Clip-2"></g>
                        <path d="M10.7142857,5.70621154 L10.7142857,0 L2.85714286,5.84615385 L0,5.84615385 L0,13.1538462 L2.85714286,13.1538462 L10.7142857,19 L10.7142857,13.2937885 C11.9942857,12.5345192 12.8571429,11.1219423 12.8571429,9.5 C12.8571429,7.87769231 11.9942857,6.46548077 10.7142857,5.70621154 L10.7142857,5.70621154 Z M0.714285714,6.57692308 L2.85714286,6.57692308 L2.85714286,12.4230769 L0.714285714,12.4230769 L0.714285714,6.57692308 Z M10,17.5647692 L3.57142857,12.7815192 L3.57142857,6.21848077 L10,1.43523077 L10,17.5647692 L10,17.5647692 Z M10.7142857,12.5959038 L10.7142857,6.40409615 C11.6621429,7.09357692 12.2857143,8.21969231 12.2857143,9.5 C12.2857143,10.7803077 11.6621429,11.9064231 10.7142857,12.5959038 L10.7142857,12.5959038 Z" id="Fill-1" fill="#FFFFFF" sketch:type="MSShapeGroup" mask="url(#mask-2)"></path>
                    </g>
                    <path d="M18.7142857,9.5 C18.7142857,12.1289423 17.4882143,14.4611923 15.6,15.96 L16.0092857,16.3794615 C17.9992857,14.7739615 19.2857143,12.2944615 19.2857143,9.5 C19.2857143,6.70553846 17.9992857,4.22603846 16.0092857,2.62053846 L15.6,3.04 C17.4882143,4.53880769 18.7142857,6.87105769 18.7142857,9.5" id="Fill-4" fill="#FFFFFF" sketch:type="MSShapeGroup"></path>
                    <path d="M15.4260714,9.5 C15.4260714,11.2257115 14.7028571,12.7764038 13.5582143,13.8703654 L13.9628571,14.2850769 C15.2114286,13.08625 15.9975,11.3905 15.9975,9.5 C15.9975,7.6095 15.2114286,5.91375 13.9628571,4.71492308 L13.5582143,5.12890385 C14.7028571,6.22286538 15.4260714,7.77428846 15.4260714,9.5" id="Fill-5" fill="#FFFFFF" sketch:type="MSShapeGroup"></path>
                </g>
            </g>
        </g>
    </g>
</svg>